<svg xmlns="http://www.w3.org/2000/svg" viewBox="0 0 1280 420" width="1280" height="420" role="img" aria-label="SHROUD - Compliant ZK Privacy Pool">
  
  <defs>
    <radialGradient id="void" cx="50%" cy="42%" r="78%">
      <stop offset="0%" stop-color="#0f0720"/><stop offset="55%" stop-color="#080412"/><stop offset="100%" stop-color="#030208"/>
    </radialGradient>
    <radialGradient id="orb" cx="50%" cy="45%" r="60%">
      <stop offset="0%" stop-color="#ffffff"/><stop offset="35%" stop-color="#c7d2fe"/>
      <stop offset="100%" stop-color="#818cf8"/>
    </radialGradient>
    <radialGradient id="orbHalo" cx="50%" cy="50%" r="50%">
      <stop offset="0%" stop-color="#6366f1" stop-opacity="0.8"/><stop offset="100%" stop-color="#6366f1" stop-opacity="0"/>
    </radialGradient>
    <linearGradient id="glass" x1="0" y1="0" x2="0" y2="1">
      <stop offset="0%" stop-color="#6366f1" stop-opacity="0.35"/><stop offset="100%" stop-color="#1e1b4b" stop-opacity="0.7"/>
    </linearGradient>
    <linearGradient id="title" x1="0" y1="0" x2="1" y2="0">
      <stop offset="0%" stop-color="#c7d2fe"/><stop offset="50%" stop-color="#818cf8"/><stop offset="100%" stop-color="#a5b4fc"/>
    </linearGradient>
    <linearGradient id="holoSweep" x1="0" y1="0" x2="1" y2="0">
      <stop offset="0%" stop-color="#a5b4fc" stop-opacity="0"/><stop offset="50%" stop-color="#c7d2fe" stop-opacity="0.9"/><stop offset="100%" stop-color="#a5b4fc" stop-opacity="0"/>
    </linearGradient>
    <radialGradient id="reflFadeGrad"><stop offset="0%" stop-color="#fff"/><stop offset="100%" stop-color="#000"/></radialGradient>
    <filter id="glow" x="-60%" y="-60%" width="220%" height="220%">
      <feGaussianBlur stdDeviation="2.2" result="b"/><feMerge><feMergeNode in="b"/><feMergeNode in="SourceGraphic"/></feMerge>
    </filter>
    <filter id="bloom" x="-120%" y="-120%" width="340%" height="340%"><feGaussianBlur stdDeviation="5.5"/></filter>
    <filter id="bigglow" x="-90%" y="-90%" width="280%" height="280%">
      <feGaussianBlur stdDeviation="6" result="b"/><feMerge><feMergeNode in="b"/><feMergeNode in="SourceGraphic"/></feMerge>
    </filter>
    <filter id="softblur" x="-50%" y="-50%" width="200%" height="200%"><feGaussianBlur stdDeviation="3"/></filter>
  </defs>
  <rect width="1280" height="420" fill="url(#void)"/>
  <g stroke="#6366f1" stroke-width="0.8" opacity="0.14" fill="none"><line x1="360" y1="-346" x2="-1032" y2="350"/><line x1="360" y1="-346" x2="1752" y2="350"/><line x1="418" y1="-317" x2="-974" y2="379"/><line x1="302" y1="-317" x2="1694" y2="379"/><line x1="476" y1="-288" x2="-916" y2="408"/><line x1="244" y1="-288" x2="1636" y2="408"/><line x1="534" y1="-259" x2="-858" y2="437"/><line x1="186" y1="-259" x2="1578" y2="437"/><line x1="592" y1="-230" x2="-800" y2="466"/><line x1="128" y1="-230" x2="1520" y2="466"/><line x1="650" y1="-201" x2="-742" y2="495"/><line x1="70" y1="-201" x2="1462" y2="495"/><line x1="708" y1="-172" x2="-684" y2="524"/><line x1="12" y1="-172" x2="1404" y2="524"/><line x1="766" y1="-143" x2="-626" y2="553"/><line x1="-46" y1="-143" x2="1346" y2="553"/><line x1="824" y1="-114" x2="-568" y2="582"/><line x1="-104" y1="-114" x2="1288" y2="582"/><line x1="882" y1="-85" x2="-510" y2="611"/><line x1="-162" y1="-85" x2="1230" y2="611"/><line x1="940" y1="-56" x2="-452" y2="640"/><line x1="-220" y1="-56" x2="1172" y2="640"/><line x1="998" y1="-27" x2="-394" y2="669"/><line x1="-278" y1="-27" x2="1114" y2="669"/><line x1="1056" y1="2" x2="-336" y2="698"/><line x1="-336" y1="2" x2="1056" y2="698"/><line x1="1114" y1="31" x2="-278" y2="727"/><line x1="-394" y1="31" x2="998" y2="727"/><line x1="1172" y1="60" x2="-220" y2="756"/><line x1="-452" y1="60" x2="940" y2="756"/><line x1="1230" y1="89" x2="-162" y2="785"/><line x1="-510" y1="89" x2="882" y2="785"/><line x1="1288" y1="118" x2="-104" y2="814"/><line x1="-568" y1="118" x2="824" y2="814"/><line x1="1346" y1="147" x2="-46" y2="843"/><line x1="-626" y1="147" x2="766" y2="843"/><line x1="1404" y1="176" x2="12" y2="872"/><line x1="-684" y1="176" x2="708" y2="872"/><line x1="1462" y1="205" x2="70" y2="901"/><line x1="-742" y1="205" x2="650" y2="901"/><line x1="1520" y1="234" x2="128" y2="930"/><line x1="-800" y1="234" x2="592" y2="930"/><line x1="1578" y1="263" x2="186" y2="959"/><line x1="-858" y1="263" x2="534" y2="959"/><line x1="1636" y1="292" x2="244" y2="988"/><line x1="-916" y1="292" x2="476" y2="988"/><line x1="1694" y1="321" x2="302" y2="1017"/><line x1="-974" y1="321" x2="418" y2="1017"/><line x1="1752" y1="350" x2="360" y2="1046"/><line x1="-1032" y1="350" x2="360" y2="1046"/><animate attributeName="opacity" values="0.14;0.266;0.14" dur="5s" repeatCount="indefinite"/></g>
  
    <g stroke="#6366f1" stroke-width="0.8" opacity="0.18" fill="none"><line x1="330" y1="54.35" x2="-66" y2="252.35"/><line x1="330" y1="54.35" x2="726" y2="252.35"/><line x1="363" y1="70.85" x2="-33" y2="268.85"/><line x1="297" y1="70.85" x2="693" y2="268.85"/><line x1="396" y1="87.35" x2="0" y2="285.35"/><line x1="264" y1="87.35" x2="660" y2="285.35"/><line x1="429" y1="103.85" x2="33" y2="301.85"/><line x1="231" y1="103.85" x2="627" y2="301.85"/><line x1="462" y1="120.35" x2="66" y2="318.35"/><line x1="198" y1="120.35" x2="594" y2="318.35"/><line x1="495" y1="136.85" x2="99" y2="334.85"/><line x1="165" y1="136.85" x2="561" y2="334.85"/><line x1="528" y1="153.35" x2="132" y2="351.35"/><line x1="132" y1="153.35" x2="528" y2="351.35"/><line x1="561" y1="169.85" x2="165" y2="367.85"/><line x1="99" y1="169.85" x2="495" y2="367.85"/><line x1="594" y1="186.35" x2="198" y2="384.35"/><line x1="66" y1="186.35" x2="462" y2="384.35"/><line x1="627" y1="202.85" x2="231" y2="400.85"/><line x1="33" y1="202.85" x2="429" y2="400.85"/><line x1="660" y1="219.35" x2="264" y2="417.35"/><line x1="0" y1="219.35" x2="396" y2="417.35"/><line x1="693" y1="235.85" x2="297" y2="433.85"/><line x1="-33" y1="235.85" x2="363" y2="433.85"/><line x1="726" y1="252.35" x2="330" y2="450.35"/><line x1="-66" y1="252.35" x2="330" y2="450.35"/><animate attributeName="opacity" values="0.18;0.34199999999999997;0.18" dur="5s" repeatCount="indefinite"/></g>
    <ellipse cx="330" cy="239.15" rx="102.3" ry="33" fill="#6366f1" opacity="0.2" filter="url(#bloom)"><animate attributeName="opacity" values="0.12;0.3;0.12" dur="4s" repeatCount="indefinite"/></ellipse>
    <g opacity="0.16" filter="url(#softblur)" transform="translate(0 481.6) scale(1 -1)">
    <g stroke="#a5b4fc" stroke-width="3" opacity="0.16" fill="none" filter="url(#bloom)"><line x1="330" y1="188" x2="429" y2="237.5"/><line x1="429" y1="237.5" x2="330" y2="287"/><line x1="330" y1="287" x2="231" y2="237.5"/><line x1="231" y1="237.5" x2="330" y2="188"/><line x1="330" y1="89" x2="429" y2="138.5"/><line x1="429" y1="138.5" x2="330" y2="188"/><line x1="330" y1="188" x2="231" y2="138.5"/><line x1="231" y1="138.5" x2="330" y2="89"/><line x1="330" y1="188" x2="330" y2="89"/><line x1="429" y1="237.5" x2="429" y2="138.5"/><line x1="330" y1="287" x2="330" y2="188"/><line x1="231" y1="237.5" x2="231" y2="138.5"/></g>
    <g stroke="#4f46e5" stroke-width="1.1" opacity="0.5" fill="none" stroke-linecap="round"><line x1="330" y1="188" x2="429" y2="237.5"/><line x1="330" y1="188" x2="330" y2="89"/><line x1="330" y1="188" x2="231" y2="237.5"/><line x1="297" y1="204.5" x2="396" y2="254"/><line x1="297" y1="204.5" x2="297" y2="105.5"/><line x1="330" y1="155" x2="231" y2="204.5"/><line x1="264" y1="221" x2="363" y2="270.5"/><line x1="264" y1="221" x2="264" y2="122"/><line x1="330" y1="122" x2="231" y2="171.5"/><line x1="231" y1="237.5" x2="330" y2="287"/><line x1="231" y1="237.5" x2="231" y2="138.5"/><line x1="330" y1="89" x2="231" y2="138.5"/><line x1="330" y1="155" x2="429" y2="204.5"/><line x1="363" y1="204.5" x2="363" y2="105.5"/><line x1="363" y1="204.5" x2="264" y2="254"/><line x1="297" y1="171.5" x2="396" y2="221"/><line x1="330" y1="221" x2="330" y2="122"/><line x1="363" y1="171.5" x2="264" y2="221"/><line x1="264" y1="188" x2="363" y2="237.5"/><line x1="297" y1="237.5" x2="297" y2="138.5"/><line x1="363" y1="138.5" x2="264" y2="188"/><line x1="231" y1="204.5" x2="330" y2="254"/><line x1="264" y1="254" x2="264" y2="155"/><line x1="363" y1="105.5" x2="264" y2="155"/><line x1="330" y1="122" x2="429" y2="171.5"/><line x1="396" y1="221" x2="396" y2="122"/><line x1="396" y1="221" x2="297" y2="270.5"/><line x1="297" y1="138.5" x2="396" y2="188"/><line x1="363" y1="237.5" x2="363" y2="138.5"/><line x1="396" y1="188" x2="297" y2="237.5"/><line x1="264" y1="155" x2="363" y2="204.5"/><line x1="330" y1="254" x2="330" y2="155"/><line x1="396" y1="155" x2="297" y2="204.5"/><line x1="231" y1="171.5" x2="330" y2="221"/><line x1="297" y1="270.5" x2="297" y2="171.5"/><line x1="396" y1="122" x2="297" y2="171.5"/><line x1="330" y1="89" x2="429" y2="138.5"/><line x1="429" y1="237.5" x2="429" y2="138.5"/><line x1="429" y1="237.5" x2="330" y2="287"/><line x1="297" y1="105.5" x2="396" y2="155"/><line x1="396" y1="254" x2="396" y2="155"/><line x1="429" y1="204.5" x2="330" y2="254"/><line x1="264" y1="122" x2="363" y2="171.5"/><line x1="363" y1="270.5" x2="363" y2="171.5"/><line x1="429" y1="171.5" x2="330" y2="221"/><line x1="231" y1="138.5" x2="330" y2="188"/><line x1="330" y1="287" x2="330" y2="188"/><line x1="429" y1="138.5" x2="330" y2="188"/></g>
    <g stroke="#c7d2fe" stroke-width="2" fill="none" filter="url(#glow)" stroke-linejoin="round"><line x1="330" y1="188" x2="429" y2="237.5"/><line x1="429" y1="237.5" x2="330" y2="287"/><line x1="330" y1="287" x2="231" y2="237.5"/><line x1="231" y1="237.5" x2="330" y2="188"/><line x1="330" y1="89" x2="429" y2="138.5"/><line x1="429" y1="138.5" x2="330" y2="188"/><line x1="330" y1="188" x2="231" y2="138.5"/><line x1="231" y1="138.5" x2="330" y2="89"/><line x1="330" y1="188" x2="330" y2="89"/><line x1="429" y1="237.5" x2="429" y2="138.5"/><line x1="330" y1="287" x2="330" y2="188"/><line x1="231" y1="237.5" x2="231" y2="138.5"/></g>
    <g fill="#e0e7ff" filter="url(#glow)"><circle cx="330" cy="188" r="3"/><circle cx="429" cy="237.5" r="3"/><circle cx="330" cy="287" r="3"/><circle cx="231" cy="237.5" r="3"/><circle cx="330" cy="89" r="3"/><circle cx="429" cy="138.5" r="3"/><circle cx="330" cy="188" r="3"/><circle cx="231" cy="138.5" r="3"/></g><g filter="url(#glow)" stroke="#c7d2fe" stroke-width="1.2" stroke-linejoin="round">
    <polygon points="382.8,125.3 409.2,138.5 382.8,151.7 356.4,138.5" fill="#818cf8" fill-opacity="0.7"/>
    <polygon points="356.4,164.9 356.4,138.5 382.8,151.7 382.8,178.1" fill="#4338ca" fill-opacity="0.7"/>
    <polygon points="382.8,178.1 382.8,151.7 409.2,138.5 409.2,164.9" fill="#3730a3" fill-opacity="0.7"/></g><g filter="url(#glow)" stroke="#c7d2fe" stroke-width="1.2" stroke-linejoin="round">
    <polygon points="277.2,72.5 303.6,85.7 277.2,98.9 250.8,85.7" fill="#818cf8" fill-opacity="0.7"/>
    <polygon points="250.8,112.1 250.8,85.7 277.2,98.9 277.2,125.3" fill="#4338ca" fill-opacity="0.7"/>
    <polygon points="277.2,125.3 277.2,98.9 303.6,85.7 303.6,112.1" fill="#3730a3" fill-opacity="0.7"/></g><g filter="url(#glow)" stroke="#c7d2fe" stroke-width="1.2" stroke-linejoin="round">
    <polygon points="277.2,125.3 303.6,138.5 277.2,151.7 250.8,138.5" fill="#818cf8" fill-opacity="0.7"/>
    <polygon points="250.8,164.9 250.8,138.5 277.2,151.7 277.2,178.1" fill="#4338ca" fill-opacity="0.7"/>
    <polygon points="277.2,178.1 277.2,151.7 303.6,138.5 303.6,164.9" fill="#3730a3" fill-opacity="0.7"/></g><g filter="url(#glow)" stroke="#c7d2fe" stroke-width="1.2" stroke-linejoin="round">
    <polygon points="382.8,72.5 409.2,85.7 382.8,98.9 356.4,85.7" fill="#818cf8" fill-opacity="0.7"/>
    <polygon points="356.4,112.1 356.4,85.7 382.8,98.9 382.8,125.3" fill="#4338ca" fill-opacity="0.7"/>
    <polygon points="382.8,125.3 382.8,98.9 409.2,85.7 409.2,112.1" fill="#3730a3" fill-opacity="0.7"/></g></g>
    
    <polygon points="132,240.8 330,339.8 330,353 132,254" fill="#240310" fill-opacity="0.9" stroke="#4f46e5" stroke-width="1"/>
    <polygon points="330,339.8 528,240.8 528,254 330,353" fill="#190209" fill-opacity="0.9" stroke="#4f46e5" stroke-width="1"/>
    <polygon points="330,141.8 528,240.8 330,339.8 132,240.8" fill="url(#glass)" stroke="#a5b4fc" stroke-width="1.5" filter="url(#glow)"/>
    <g stroke="#6366f1" stroke-width="0.6" opacity="0.4" fill="none"><line x1="330" y1="141.8" x2="132" y2="240.8"/><line x1="330" y1="141.8" x2="528" y2="240.8"/><line x1="346.5" y1="150.05" x2="148.5" y2="249.05"/><line x1="313.5" y1="150.05" x2="511.5" y2="249.05"/><line x1="363" y1="158.3" x2="165" y2="257.3"/><line x1="297" y1="158.3" x2="495" y2="257.3"/><line x1="379.5" y1="166.55" x2="181.5" y2="265.55"/><line x1="280.5" y1="166.55" x2="478.5" y2="265.55"/><line x1="396" y1="174.8" x2="198" y2="273.8"/><line x1="264" y1="174.8" x2="462" y2="273.8"/><line x1="412.5" y1="183.05" x2="214.5" y2="282.05"/><line x1="247.5" y1="183.05" x2="445.5" y2="282.05"/><line x1="429" y1="191.3" x2="231" y2="290.3"/><line x1="231" y1="191.3" x2="429" y2="290.3"/><line x1="445.5" y1="199.55" x2="247.5" y2="298.55"/><line x1="214.5" y1="199.55" x2="412.5" y2="298.55"/><line x1="462" y1="207.8" x2="264" y2="306.8"/><line x1="198" y1="207.8" x2="396" y2="306.8"/><line x1="478.5" y1="216.05" x2="280.5" y2="315.05"/><line x1="181.5" y1="216.05" x2="379.5" y2="315.05"/><line x1="495" y1="224.3" x2="297" y2="323.3"/><line x1="165" y1="224.3" x2="363" y2="323.3"/><line x1="511.5" y1="232.55" x2="313.5" y2="331.55"/><line x1="148.5" y1="232.55" x2="346.5" y2="331.55"/><line x1="528" y1="240.8" x2="330" y2="339.8"/><line x1="132" y1="240.8" x2="330" y2="339.8"/></g>
    <g transform="translate(330 240.8) scale(1 0.5)"><g><animateTransform attributeName="transform" type="rotate" from="0 0 0" to="360 0 0" dur="14s" repeatCount="indefinite"/><circle r="67.64999999999999" fill="none" stroke="#a5b4fc" stroke-width="2" stroke-dasharray="10 14" opacity="0.7" filter="url(#glow)"/></g></g><g transform="translate(330 240.8) scale(1 0.5)"><g><animateTransform attributeName="transform" type="rotate" from="360 0 0" to="0 0 0" dur="22s" repeatCount="indefinite"/><circle r="82.5" fill="none" stroke="#a5b4fc" stroke-width="1.5" stroke-dasharray="3 18" opacity="0.5" filter="url(#glow)"/></g></g>
    <ellipse cx="330" cy="240.8" rx="16.5" ry="8.25" fill="none" stroke="#c7d2fe" stroke-width="2" filter="url(#glow)">
      <animate attributeName="rx" values="13.200000000000001;99" dur="4.2s" begin="0.00s" repeatCount="indefinite"/>
      <animate attributeName="ry" values="6.6000000000000005;49.5" dur="4.2s" begin="0.00s" repeatCount="indefinite"/>
      <animate attributeName="opacity" values="0.85;0" dur="4.2s" begin="0.00s" repeatCount="indefinite"/></ellipse><ellipse cx="330" cy="240.8" rx="16.5" ry="8.25" fill="none" stroke="#c7d2fe" stroke-width="2" filter="url(#glow)">
      <animate attributeName="rx" values="13.200000000000001;99" dur="4.2s" begin="1.40s" repeatCount="indefinite"/>
      <animate attributeName="ry" values="6.6000000000000005;49.5" dur="4.2s" begin="1.40s" repeatCount="indefinite"/>
      <animate attributeName="opacity" values="0.85;0" dur="4.2s" begin="1.40s" repeatCount="indefinite"/></ellipse><ellipse cx="330" cy="240.8" rx="16.5" ry="8.25" fill="none" stroke="#c7d2fe" stroke-width="2" filter="url(#glow)">
      <animate attributeName="rx" values="13.200000000000001;99" dur="4.2s" begin="2.80s" repeatCount="indefinite"/>
      <animate attributeName="ry" values="6.6000000000000005;49.5" dur="4.2s" begin="2.80s" repeatCount="indefinite"/>
      <animate attributeName="opacity" values="0.85;0" dur="4.2s" begin="2.80s" repeatCount="indefinite"/></ellipse>
    <line x1="330" y1="181.4" x2="488.4" y2="168.2" stroke="#6366f1" stroke-width="1" opacity="0.55" stroke-dasharray="3 4"><animate attributeName="stroke-dashoffset" values="24;0" dur="1.4s" repeatCount="indefinite"/></line><circle r="2.6" cx="330" cy="181.4" fill="#e0e7ff" filter="url(#glow)">
        <animateTransform attributeName="transform" type="translate" values="0 0; 158.40 -13.20" dur="2s" repeatCount="indefinite"/>
        <animate attributeName="opacity" values="0;1;0" dur="2s" repeatCount="indefinite"/></circle><line x1="330" y1="181.4" x2="184.8" y2="128.6" stroke="#6366f1" stroke-width="1" opacity="0.55" stroke-dasharray="3 4"><animate attributeName="stroke-dashoffset" values="24;0" dur="1.7s" repeatCount="indefinite"/></line><circle r="2.6" cx="330" cy="181.4" fill="#e0e7ff" filter="url(#glow)">
        <animateTransform attributeName="transform" type="translate" values="0 0; -145.20 -52.80" dur="2.4s" repeatCount="indefinite"/>
        <animate attributeName="opacity" values="0;1;0" dur="2.4s" repeatCount="indefinite"/></circle><line x1="330" y1="181.4" x2="336.6" y2="178.1" stroke="#6366f1" stroke-width="1" opacity="0.55" stroke-dasharray="3 4"><animate attributeName="stroke-dashoffset" values="24;0" dur="2s" repeatCount="indefinite"/></line><circle r="2.6" cx="330" cy="181.4" fill="#e0e7ff" filter="url(#glow)">
        <animateTransform attributeName="transform" type="translate" values="0 0; 6.60 -3.30" dur="2.8s" repeatCount="indefinite"/>
        <animate attributeName="opacity" values="0;1;0" dur="2.8s" repeatCount="indefinite"/></circle><line x1="330" y1="181.4" x2="336.6" y2="39.5" stroke="#6366f1" stroke-width="1" opacity="0.55" stroke-dasharray="3 4"><animate attributeName="stroke-dashoffset" values="24;0" dur="2.3s" repeatCount="indefinite"/></line><circle r="2.6" cx="330" cy="181.4" fill="#e0e7ff" filter="url(#glow)">
        <animateTransform attributeName="transform" type="translate" values="0 0; 6.60 -141.90" dur="3.2s" repeatCount="indefinite"/>
        <animate attributeName="opacity" values="0;1;0" dur="3.2s" repeatCount="indefinite"/></circle>
    <g><animateTransform attributeName="transform" type="translate" values="0 0; 0 -6; 0 0" dur="5s" repeatCount="indefinite" additive="sum"/>
    <g stroke="#a5b4fc" stroke-width="3" opacity="0.16" fill="none" filter="url(#bloom)"><line x1="330" y1="188" x2="429" y2="237.5"/><line x1="429" y1="237.5" x2="330" y2="287"/><line x1="330" y1="287" x2="231" y2="237.5"/><line x1="231" y1="237.5" x2="330" y2="188"/><line x1="330" y1="89" x2="429" y2="138.5"/><line x1="429" y1="138.5" x2="330" y2="188"/><line x1="330" y1="188" x2="231" y2="138.5"/><line x1="231" y1="138.5" x2="330" y2="89"/><line x1="330" y1="188" x2="330" y2="89"/><line x1="429" y1="237.5" x2="429" y2="138.5"/><line x1="330" y1="287" x2="330" y2="188"/><line x1="231" y1="237.5" x2="231" y2="138.5"/></g>
    <g stroke="#4f46e5" stroke-width="1.1" opacity="0.5" fill="none" stroke-linecap="round"><line x1="330" y1="188" x2="429" y2="237.5"/><line x1="330" y1="188" x2="330" y2="89"/><line x1="330" y1="188" x2="231" y2="237.5"/><line x1="297" y1="204.5" x2="396" y2="254"/><line x1="297" y1="204.5" x2="297" y2="105.5"/><line x1="330" y1="155" x2="231" y2="204.5"/><line x1="264" y1="221" x2="363" y2="270.5"/><line x1="264" y1="221" x2="264" y2="122"/><line x1="330" y1="122" x2="231" y2="171.5"/><line x1="231" y1="237.5" x2="330" y2="287"/><line x1="231" y1="237.5" x2="231" y2="138.5"/><line x1="330" y1="89" x2="231" y2="138.5"/><line x1="330" y1="155" x2="429" y2="204.5"/><line x1="363" y1="204.5" x2="363" y2="105.5"/><line x1="363" y1="204.5" x2="264" y2="254"/><line x1="297" y1="171.5" x2="396" y2="221"/><line x1="330" y1="221" x2="330" y2="122"/><line x1="363" y1="171.5" x2="264" y2="221"/><line x1="264" y1="188" x2="363" y2="237.5"/><line x1="297" y1="237.5" x2="297" y2="138.5"/><line x1="363" y1="138.5" x2="264" y2="188"/><line x1="231" y1="204.5" x2="330" y2="254"/><line x1="264" y1="254" x2="264" y2="155"/><line x1="363" y1="105.5" x2="264" y2="155"/><line x1="330" y1="122" x2="429" y2="171.5"/><line x1="396" y1="221" x2="396" y2="122"/><line x1="396" y1="221" x2="297" y2="270.5"/><line x1="297" y1="138.5" x2="396" y2="188"/><line x1="363" y1="237.5" x2="363" y2="138.5"/><line x1="396" y1="188" x2="297" y2="237.5"/><line x1="264" y1="155" x2="363" y2="204.5"/><line x1="330" y1="254" x2="330" y2="155"/><line x1="396" y1="155" x2="297" y2="204.5"/><line x1="231" y1="171.5" x2="330" y2="221"/><line x1="297" y1="270.5" x2="297" y2="171.5"/><line x1="396" y1="122" x2="297" y2="171.5"/><line x1="330" y1="89" x2="429" y2="138.5"/><line x1="429" y1="237.5" x2="429" y2="138.5"/><line x1="429" y1="237.5" x2="330" y2="287"/><line x1="297" y1="105.5" x2="396" y2="155"/><line x1="396" y1="254" x2="396" y2="155"/><line x1="429" y1="204.5" x2="330" y2="254"/><line x1="264" y1="122" x2="363" y2="171.5"/><line x1="363" y1="270.5" x2="363" y2="171.5"/><line x1="429" y1="171.5" x2="330" y2="221"/><line x1="231" y1="138.5" x2="330" y2="188"/><line x1="330" y1="287" x2="330" y2="188"/><line x1="429" y1="138.5" x2="330" y2="188"/></g>
    <g stroke="#c7d2fe" stroke-width="2" fill="none" filter="url(#glow)" stroke-linejoin="round"><line x1="330" y1="188" x2="429" y2="237.5"/><line x1="429" y1="237.5" x2="330" y2="287"/><line x1="330" y1="287" x2="231" y2="237.5"/><line x1="231" y1="237.5" x2="330" y2="188"/><line x1="330" y1="89" x2="429" y2="138.5"/><line x1="429" y1="138.5" x2="330" y2="188"/><line x1="330" y1="188" x2="231" y2="138.5"/><line x1="231" y1="138.5" x2="330" y2="89"/><line x1="330" y1="188" x2="330" y2="89"/><line x1="429" y1="237.5" x2="429" y2="138.5"/><line x1="330" y1="287" x2="330" y2="188"/><line x1="231" y1="237.5" x2="231" y2="138.5"/></g>
    <g fill="#e0e7ff" filter="url(#glow)"><circle cx="330" cy="188" r="3"/><circle cx="429" cy="237.5" r="3"/><circle cx="330" cy="287" r="3"/><circle cx="231" cy="237.5" r="3"/><circle cx="330" cy="89" r="3"/><circle cx="429" cy="138.5" r="3"/><circle cx="330" cy="188" r="3"/><circle cx="231" cy="138.5" r="3"/></g><g filter="url(#glow)" stroke="#c7d2fe" stroke-width="1.2" stroke-linejoin="round">
    <polygon points="382.8,125.3 409.2,138.5 382.8,151.7 356.4,138.5" fill="#818cf8" fill-opacity="0.7"/>
    <polygon points="356.4,164.9 356.4,138.5 382.8,151.7 382.8,178.1" fill="#4338ca" fill-opacity="0.7"/>
    <polygon points="382.8,178.1 382.8,151.7 409.2,138.5 409.2,164.9" fill="#3730a3" fill-opacity="0.7"/></g><g filter="url(#glow)" stroke="#c7d2fe" stroke-width="1.2" stroke-linejoin="round">
    <polygon points="277.2,72.5 303.6,85.7 277.2,98.9 250.8,85.7" fill="#818cf8" fill-opacity="0.7"/>
    <polygon points="250.8,112.1 250.8,85.7 277.2,98.9 277.2,125.3" fill="#4338ca" fill-opacity="0.7"/>
    <polygon points="277.2,125.3 277.2,98.9 303.6,85.7 303.6,112.1" fill="#3730a3" fill-opacity="0.7"/></g><g filter="url(#glow)" stroke="#c7d2fe" stroke-width="1.2" stroke-linejoin="round">
    <polygon points="277.2,125.3 303.6,138.5 277.2,151.7 250.8,138.5" fill="#818cf8" fill-opacity="0.7"/>
    <polygon points="250.8,164.9 250.8,138.5 277.2,151.7 277.2,178.1" fill="#4338ca" fill-opacity="0.7"/>
    <polygon points="277.2,178.1 277.2,151.7 303.6,138.5 303.6,164.9" fill="#3730a3" fill-opacity="0.7"/></g><g filter="url(#glow)" stroke="#c7d2fe" stroke-width="1.2" stroke-linejoin="round">
    <polygon points="382.8,72.5 409.2,85.7 382.8,98.9 356.4,85.7" fill="#818cf8" fill-opacity="0.7"/>
    <polygon points="356.4,112.1 356.4,85.7 382.8,98.9 382.8,125.3" fill="#4338ca" fill-opacity="0.7"/>
    <polygon points="382.8,125.3 382.8,98.9 409.2,85.7 409.2,112.1" fill="#3730a3" fill-opacity="0.7"/></g><g>
    <circle cx="330" cy="188" r="20" fill="url(#orbHalo)" opacity="0.38" filter="url(#bloom)"><animate attributeName="r" values="16;24;16" dur="2.6s" repeatCount="indefinite"/><animate attributeName="opacity" values="0.4;0.12;0.4" dur="2.6s" repeatCount="indefinite"/></circle>
    <circle cx="330" cy="188" r="11" fill="url(#orb)" filter="url(#glow)"><animate attributeName="r" values="9;13;9" dur="2.6s" repeatCount="indefinite"/><animate attributeName="opacity" values="0.92;1;0.92" dur="2.6s" repeatCount="indefinite"/></circle>
  </g></g>
    <g><animateTransform attributeName="transform" type="translate" values="0 0; 0 -8; 0 0" dur="3s" repeatCount="indefinite" additive="sum"/><animateTransform attributeName="transform" type="rotate" values="0;360" dur="18s" repeatCount="indefinite" additive="sum"/><g filter="url(#glow)" stroke="#c7d2fe" stroke-width="1.2" stroke-linejoin="round">
    <polygon points="488.4,147.08 509.52,157.64 488.4,168.2 467.28,157.64" fill="#818cf8" fill-opacity="0.7"/>
    <polygon points="467.28,178.76 467.28,157.64 488.4,168.2 488.4,189.32" fill="#4338ca" fill-opacity="0.7"/>
    <polygon points="488.4,189.32 488.4,168.2 509.52,157.64 509.52,178.76" fill="#3730a3" fill-opacity="0.7"/></g></g><g><animateTransform attributeName="transform" type="translate" values="0 0; 0 -8; 0 0" dur="3.7s" repeatCount="indefinite" additive="sum"/><animateTransform attributeName="transform" type="rotate" values="0;360" dur="22s" repeatCount="indefinite" additive="sum"/><g filter="url(#glow)" stroke="#c7d2fe" stroke-width="1.2" stroke-linejoin="round">
    <polygon points="184.8,107.48 205.92,118.04 184.8,128.6 163.68,118.04" fill="#818cf8" fill-opacity="0.7"/>
    <polygon points="163.68,139.16 163.68,118.04 184.8,128.6 184.8,149.72" fill="#4338ca" fill-opacity="0.7"/>
    <polygon points="184.8,149.72 184.8,128.6 205.92,118.04 205.92,139.16" fill="#3730a3" fill-opacity="0.7"/></g></g><g><animateTransform attributeName="transform" type="translate" values="0 0; 0 -8; 0 0" dur="4.4s" repeatCount="indefinite" additive="sum"/><animateTransform attributeName="transform" type="rotate" values="0;360" dur="26s" repeatCount="indefinite" additive="sum"/><g filter="url(#glow)" stroke="#c7d2fe" stroke-width="1.2" stroke-linejoin="round">
    <polygon points="336.6,156.98 357.72,167.54 336.6,178.1 315.48,167.54" fill="#818cf8" fill-opacity="0.7"/>
    <polygon points="315.48,188.66 315.48,167.54 336.6,178.1 336.6,199.22" fill="#4338ca" fill-opacity="0.7"/>
    <polygon points="336.6,199.22 336.6,178.1 357.72,167.54 357.72,188.66" fill="#3730a3" fill-opacity="0.7"/></g></g><g><animateTransform attributeName="transform" type="translate" values="0 0; 0 -8; 0 0" dur="5.1s" repeatCount="indefinite" additive="sum"/><animateTransform attributeName="transform" type="rotate" values="0;360" dur="30s" repeatCount="indefinite" additive="sum"/><g filter="url(#glow)" stroke="#c7d2fe" stroke-width="1.2" stroke-linejoin="round">
    <polygon points="336.6,18.38 357.72,28.94 336.6,39.5 315.48,28.94" fill="#818cf8" fill-opacity="0.7"/>
    <polygon points="315.48,50.06 315.48,28.94 336.6,39.5 336.6,60.62" fill="#4338ca" fill-opacity="0.7"/>
    <polygon points="336.6,60.62 336.6,39.5 357.72,28.94 357.72,50.06" fill="#3730a3" fill-opacity="0.7"/></g></g>
    <circle cx="330" cy="295.96" r="2.9" fill="#c7d2fe" filter="url(#glow)">
        <animate attributeName="cy" values="295.96;150.0" dur="5.53s" begin="3.38s" repeatCount="indefinite"/>
        <animate attributeName="opacity" values="0;0.9;0" dur="5.53s" begin="3.38s" repeatCount="indefinite"/></circle><circle cx="332.81" cy="186.06" r="2.8" fill="#c7d2fe" filter="url(#glow)">
        <animate attributeName="cy" values="186.06;104.3" dur="3.11s" begin="3.21s" repeatCount="indefinite"/>
        <animate attributeName="opacity" values="0;0.9;0" dur="3.11s" begin="3.21s" repeatCount="indefinite"/></circle><circle cx="338.38" cy="223.4" r="1.6" fill="#c7d2fe" filter="url(#glow)">
        <animate attributeName="cy" values="223.4;117.1" dur="5.88s" begin="1.98s" repeatCount="indefinite"/>
        <animate attributeName="opacity" values="0;0.9;0" dur="5.88s" begin="1.98s" repeatCount="indefinite"/></circle><circle cx="204.84" cy="225.21" r="1.7" fill="#c7d2fe" filter="url(#glow)">
        <animate attributeName="cy" values="225.21;128.7" dur="3.39s" begin="0.41s" repeatCount="indefinite"/>
        <animate attributeName="opacity" values="0;0.9;0" dur="3.39s" begin="0.41s" repeatCount="indefinite"/></circle><circle cx="406.04" cy="206.76" r="2.6" fill="#c7d2fe" filter="url(#glow)">
        <animate attributeName="cy" values="206.76;64.6" dur="4.73s" begin="1.19s" repeatCount="indefinite"/>
        <animate attributeName="opacity" values="0;0.9;0" dur="4.73s" begin="1.19s" repeatCount="indefinite"/></circle><circle cx="453.32" cy="227.48" r="2.1" fill="#c7d2fe" filter="url(#glow)">
        <animate attributeName="cy" values="227.48;80.9" dur="3.31s" begin="1.95s" repeatCount="indefinite"/>
        <animate attributeName="opacity" values="0;0.9;0" dur="3.31s" begin="1.95s" repeatCount="indefinite"/></circle><circle cx="349.01" cy="305.6" r="2.2" fill="#c7d2fe" filter="url(#glow)">
        <animate attributeName="cy" values="305.6;170.8" dur="4.21s" begin="3.85s" repeatCount="indefinite"/>
        <animate attributeName="opacity" values="0;0.9;0" dur="4.21s" begin="3.85s" repeatCount="indefinite"/></circle><circle cx="317.41" cy="190.95" r="2.6" fill="#c7d2fe" filter="url(#glow)">
        <animate attributeName="cy" values="190.95;34.4" dur="5.38s" begin="0.22s" repeatCount="indefinite"/>
        <animate attributeName="opacity" values="0;0.9;0" dur="5.38s" begin="0.22s" repeatCount="indefinite"/></circle><circle cx="362.75" cy="290.59" r="2.1" fill="#c7d2fe" filter="url(#glow)">
        <animate attributeName="cy" values="290.59;176.4" dur="4.50s" begin="2.82s" repeatCount="indefinite"/>
        <animate attributeName="opacity" values="0;0.9;0" dur="4.50s" begin="2.82s" repeatCount="indefinite"/></circle><circle cx="192.99" cy="246.8" r="2.2" fill="#c7d2fe" filter="url(#glow)">
        <animate attributeName="cy" values="246.8;110.8" dur="3.88s" begin="3.40s" repeatCount="indefinite"/>
        <animate attributeName="opacity" values="0;0.9;0" dur="3.88s" begin="3.40s" repeatCount="indefinite"/></circle><circle cx="375.36" cy="215.54" r="2.3" fill="#c7d2fe" filter="url(#glow)">
        <animate attributeName="cy" values="215.54;115.7" dur="5.89s" begin="1.01s" repeatCount="indefinite"/>
        <animate attributeName="opacity" values="0;0.9;0" dur="5.89s" begin="1.01s" repeatCount="indefinite"/></circle><circle cx="311.36" cy="188.88" r="2.0" fill="#c7d2fe" filter="url(#glow)">
        <animate attributeName="cy" values="188.88;90.2" dur="3.87s" begin="3.17s" repeatCount="indefinite"/>
        <animate attributeName="opacity" values="0;0.9;0" dur="3.87s" begin="3.17s" repeatCount="indefinite"/></circle><circle cx="266.91" cy="283.26" r="3.0" fill="#c7d2fe" filter="url(#glow)">
        <animate attributeName="cy" values="283.26;169.6" dur="5.41s" begin="0.90s" repeatCount="indefinite"/>
        <animate attributeName="opacity" values="0;0.9;0" dur="5.41s" begin="0.90s" repeatCount="indefinite"/></circle><circle cx="353.54" cy="275.77" r="2.5" fill="#c7d2fe" filter="url(#glow)">
        <animate attributeName="cy" values="275.77;165.7" dur="3.51s" begin="1.65s" repeatCount="indefinite"/>
        <animate attributeName="opacity" values="0;0.9;0" dur="3.51s" begin="1.65s" repeatCount="indefinite"/></circle>
  <g><rect x="0" y="-30" width="1280" height="30" fill="url(#holoSweep)" opacity="0.35">
    <animate attributeName="y" values="6;414" dur="5.5s" repeatCount="indefinite"/></rect>
  <rect x="0" y="0" width="1280" height="2" fill="#c7d2fe" filter="url(#glow)">
    <animate attributeName="y" values="6;414" dur="5.5s" repeatCount="indefinite"/>
    <animate attributeName="opacity" values="0;0.8;0" dur="5.5s" repeatCount="indefinite"/></rect></g>
  <g filter="url(#bigglow)"><text x="688" y="178" font-family="'Segoe UI',Helvetica,Arial,sans-serif" font-weight="800" font-size="96" letter-spacing="3" fill="url(#title)">SHROUD<animate attributeName="opacity" values="0.25;1;0.7;1;0.9" dur="3.2s" repeatCount="indefinite"/></text></g>
  <rect x="692" y="196" width="500" height="2.5" fill="#a5b4fc" opacity="0.8" filter="url(#glow)"><animate attributeName="width" values="0;500" dur="1.4s" fill="freeze"/></rect>
  <text x="694" y="232" font-family="'Segoe UI',Helvetica,Arial,sans-serif" font-weight="500" font-size="26" letter-spacing="2" fill="#ffb3c1">Compliant ZK Privacy Pool</text>
  <g transform="translate(690, 250)">
      <rect x="0" y="0" width="178" height="30" rx="15" fill="#6366f1" fill-opacity="0.10" stroke="#6366f1" stroke-opacity="0.6"/>
      <circle cx="18" cy="15" r="4.5" fill="#c7d2fe" filter="url(#glow)"><animate attributeName="opacity" values="0.3;1;0.3" dur="1.6s" repeatCount="indefinite"/></circle>
      <text x="32" y="20" font-family="'JetBrains Mono',monospace" font-size="13" letter-spacing="2" fill="#ffb3c1">ZERO-KNOWLEDGE</text></g><g transform="translate(690, 292)">
      <rect x="0" y="0" width="188" height="30" rx="15" fill="#6366f1" fill-opacity="0.10" stroke="#6366f1" stroke-opacity="0.6"/>
      <circle cx="18" cy="15" r="4.5" fill="#c7d2fe" filter="url(#glow)"><animate attributeName="opacity" values="0.3;1;0.3" dur="2s" repeatCount="indefinite"/></circle>
      <text x="32" y="20" font-family="'JetBrains Mono',monospace" font-size="13" letter-spacing="2" fill="#ffb3c1">STELLAR SOROBAN</text></g><g transform="translate(690, 334)">
      <rect x="0" y="0" width="208" height="30" rx="15" fill="#6366f1" fill-opacity="0.10" stroke="#6366f1" stroke-opacity="0.6"/>
      <circle cx="18" cy="15" r="4.5" fill="#c7d2fe" filter="url(#glow)"><animate attributeName="opacity" values="0.3;1;0.3" dur="2.4000000000000004s" repeatCount="indefinite"/></circle>
      <text x="32" y="20" font-family="'JetBrains Mono',monospace" font-size="13" letter-spacing="2" fill="#ffb3c1">ON-CHAIN VERIFIED</text></g>
  <path d="M 18 58 L 18 18 L 58 18" fill="none" stroke="#a5b4fc" stroke-width="2.5" opacity="0.8" filter="url(#glow)"/><path d="M 1262 58 L 1262 18 L 1222 18" fill="none" stroke="#a5b4fc" stroke-width="2.5" opacity="0.8" filter="url(#glow)"/><path d="M 18 362 L 18 402 L 58 402" fill="none" stroke="#a5b4fc" stroke-width="2.5" opacity="0.8" filter="url(#glow)"/><path d="M 1262 362 L 1262 402 L 1222 402" fill="none" stroke="#a5b4fc" stroke-width="2.5" opacity="0.8" filter="url(#glow)"/>
  <rect x="2" y="2" width="1276" height="416" fill="none" stroke="#4f46e5" stroke-width="2" opacity="0.4"/>
</svg>